<svg width="31" height="35" viewBox="0 0 31 35" fill="none" xmlns="http://www.w3.org/2000/svg">
<path d="M26.2499 19.9394V16.8371H23.9999V20.4167C23.9959 20.5735 24.024 20.7293 24.0823 20.8735C24.1405 21.0177 24.2276 21.1468 24.3374 21.2519L27.3749 24.4735V26.3826H2.62487V24.4735L5.66236 21.2519C5.77217 21.1468 5.8592 21.0177 5.91746 20.8735C5.97572 20.7293 6.00384 20.5735 5.99987 20.4167V14.4507C5.99987 11.9191 6.94808 9.49121 8.6359 7.70109C10.3237 5.91097 12.6129 4.9053 14.9999 4.9053C16.5824 4.90562 18.136 5.35464 19.4999 6.20586V3.47348C18.4304 2.96536 17.2909 2.64306 16.1249 2.51893V0.132568H13.8749V2.51893C11.1047 2.85386 8.54585 4.25214 6.68073 6.4501C4.8156 8.64805 3.77313 11.4938 3.74987 14.4507V19.9394L0.712365 23.161C0.602562 23.2661 0.515534 23.3952 0.457272 23.5393C0.399009 23.6835 0.370895 23.8394 0.374865 23.9962V27.5757C0.364921 27.7352 0.387205 27.895 0.440225 28.0445C0.493244 28.1941 0.575776 28.3299 0.682293 28.4429C0.788811 28.5558 0.916856 28.6434 1.05786 28.6996C1.19886 28.7558 1.34956 28.7795 1.49987 28.7689H9.37487C9.37487 30.3512 9.9675 31.8686 11.0224 32.9875C12.0773 34.1063 13.508 34.7348 14.9999 34.7348C16.4917 34.7348 17.9224 34.1063 18.9773 32.9875C20.0322 31.8686 20.6249 30.3512 20.6249 28.7689H28.4999C28.6502 28.7795 28.8009 28.7558 28.9419 28.6996C29.0829 28.6434 29.2109 28.5558 29.3174 28.4429C29.424 28.3299 29.5065 28.1941 29.5595 28.0445C29.6125 27.895 29.6348 27.7352 29.6249 27.5757V23.9962C29.6288 23.8394 29.6007 23.6835 29.5425 23.5393C29.4842 23.3952 29.3972 23.2661 29.2874 23.161L26.2499 19.9394ZM14.9999 32.3485C14.1048 32.3485 13.2463 31.9713 12.6134 31.3001C11.9804 30.6288 11.6249 29.7183 11.6249 28.7689H18.3749C18.3749 29.7183 18.0193 30.6288 17.3864 31.3001C16.7534 31.9713 15.895 32.3485 14.9999 32.3485Z" fill="url(#paint0_linear)"/>
<path d="M26.25 13.2576C28.7353 13.2576 30.75 11.1208 30.75 8.48489C30.75 5.84898 28.7353 3.71216 26.25 3.71216C23.7647 3.71216 21.75 5.84898 21.75 8.48489C21.75 11.1208 23.7647 13.2576 26.25 13.2576Z" fill="url(#paint1_linear)"/>
<defs>
<linearGradient id="paint0_linear" x1="0.372559" y1="0.132568" x2="26.2418" y2="0.132568" gradientUnits="userSpaceOnUse">
<stop stop-color="#FE5C28"/>
<stop offset="1" stop-color="#FF8B36" stop-opacity="0.9"/>
</linearGradient>
<linearGradient id="paint1_linear" x1="21.75" y1="3.71216" x2="29.7085" y2="3.71216" gradientUnits="userSpaceOnUse">
<stop stop-color="#FE5C28"/>
<stop offset="1" stop-color="#FF8B36" stop-opacity="0.9"/>
</linearGradient>
</defs>
</svg>
